<svg width="287" height="113" viewBox="0 0 287 113" fill="none" xmlns="http://www.w3.org/2000/svg">
<path d="M102.177 31.747V18C102.177 9.16346 109.34 2.00001 118.177 2.00001L167.32 2C176.157 2 183.32 9.16343 183.32 18V31.747C183.32 40.5836 190.484 47.747 199.32 47.747H269C277.837 47.747 285 54.9105 285 63.747V94.1293C285 102.966 277.837 110.129 269 110.129H18C9.16344 110.129 2 102.966 2 94.1293V63.747C2 54.9105 9.16344 47.747 18 47.747H86.177C95.0135 47.747 102.177 40.5836 102.177 31.747Z" fill="#69A3AB" stroke="#4E8289" stroke-width="4" stroke-linecap="round" stroke-linejoin="round"/>
</svg>
